<svg width="1600" height="900" viewBox="0 0 1600 900" fill="none" xmlns="http://www.w3.org/2000/svg">
  <defs>
    <pattern id="scanlines" x="0" y="0" width="10" height="10" patternUnits="userSpaceOnUse">
      <rect width="10" height="10" fill="#EAE6DD"/>
      <rect y="4" width="10" height="1.5" fill="#0B0C0D" fill-opacity="0.92"/>
    </pattern>
    <clipPath id="crow">
      <path d="M92 336C108 239 175 142 286 130L360 92L340 138H294C324 154 338 186 338 229C338 314 283 385 201 413L255 466H173L191 411L125 474L146 398H92V336Z"/>
    </clipPath>
    <linearGradient id="bg" x1="180" y1="80" x2="1420" y2="820" gradientUnits="userSpaceOnUse">
      <stop stop-color="#141618"/>
      <stop offset="1" stop-color="#0B0C0D"/>
    </linearGradient>
  </defs>

  <rect width="1600" height="900" fill="#0B0C0D"/>
  <rect x="56" y="56" width="1488" height="788" rx="44" fill="url(#bg)"/>
  <rect x="56" y="56" width="1488" height="788" rx="44" stroke="#2A2D2F" stroke-width="2"/>

  <g opacity="0.7">
    <path d="M96 160H1504" stroke="#2A2D2F" stroke-width="2"/>
    <path d="M96 222H1504" stroke="#2A2D2F" stroke-width="1"/>
    <path d="M96 284H1504" stroke="#2A2D2F" stroke-width="2"/>
    <path d="M96 346H1504" stroke="#2A2D2F" stroke-width="1"/>
  </g>

  <g transform="translate(112 132) scale(1.24)">
    <g clip-path="url(#crow)">
      <rect x="70" y="80" width="320" height="394" fill="url(#scanlines)"/>
    </g>
    <path d="M201 188C190 231 221 264 268 264C320 264 360 228 370 175C347 161 319 154 288 154C236 154 210 167 201 188Z" fill="#EAE6DD"/>
    <circle cx="283" cy="171" r="19" fill="#0B0C0D"/>
    <path d="M289 130L360 92L340 138H296L289 130Z" fill="#EAE6DD"/>
    <path d="M181 409L226 463H173L181 409Z" fill="#EAE6DD"/>
    <path d="M191 411L125 474L146 398L191 411Z" fill="#EAE6DD"/>
  </g>

  <text x="630" y="255" fill="#EAE6DD" font-family="'Space Grotesk', 'Avenir Next', 'Segoe UI', sans-serif" font-size="160" font-weight="700" letter-spacing="-8">caw</text>
  <text x="638" y="318" fill="#A7AAA4" font-family="'IBM Plex Mono', 'SFMono-Regular', Consolas, monospace" font-size="28" font-weight="500" letter-spacing="3">coding assistant watcher</text>

  <text x="630" y="470" fill="#EAE6DD" font-family="'IBM Plex Sans', 'Inter', 'Segoe UI', sans-serif" font-size="62" font-weight="500">Watch every coding agent</text>
  <text x="630" y="546" fill="#EAE6DD" font-family="'IBM Plex Sans', 'Inter', 'Segoe UI', sans-serif" font-size="62" font-weight="500">from one quiet perch.</text>

  <g transform="translate(632 628)">
    <rect width="176" height="66" rx="18" fill="#141618" stroke="#2A2D2F"/>
    <circle cx="28" cy="33" r="11" fill="#1D9E75"/>
    <text x="52" y="41" fill="#EAE6DD" font-family="'IBM Plex Mono', 'SFMono-Regular', Consolas, monospace" font-size="24">working</text>
  </g>

  <g transform="translate(828 628)">
    <rect width="176" height="66" rx="18" fill="#141618" stroke="#2A2D2F"/>
    <path d="M28 20L39 44H17L28 20Z" fill="#EF9F27"/>
    <text x="52" y="41" fill="#EAE6DD" font-family="'IBM Plex Mono', 'SFMono-Regular', Consolas, monospace" font-size="24">waiting</text>
  </g>

  <g transform="translate(1024 628)">
    <rect width="138" height="66" rx="18" fill="#141618" stroke="#2A2D2F"/>
    <circle cx="28" cy="33" r="11" stroke="#888780" stroke-width="3"/>
    <circle cx="28" cy="33" r="4" fill="#888780"/>
    <text x="52" y="41" fill="#EAE6DD" font-family="'IBM Plex Mono', 'SFMono-Regular', Consolas, monospace" font-size="24">idle</text>
  </g>

  <path d="M628 760H1396" stroke="#2A2D2F" stroke-width="2"/>
  <text x="630" y="800" fill="#A7AAA4" font-family="'IBM Plex Sans', 'Inter', 'Segoe UI', sans-serif" font-size="28">Ambient observability for AI coding sessions across tools, apps, and projects.</text>
</svg>
