<svg width="44" height="44" viewBox="60 56 400 420" fill="none" xmlns="http://www.w3.org/2000/svg">
  <!-- Crow silhouette from branding/logos/caw-icon.svg, solid black for macOS template -->
  <!-- C-body -->
  <path d="M120 256C120 163 188 94 281 94C328 94 371 111 406 144L352 196C329 176 308 166 282 166C223 166 188 206 188 256C188 306 223 346 282 346C311 346 336 336 360 316L416 368C377 403 330 420 279 420C188 420 120 350 120 256Z" fill="black"/>
  <!-- Beak arrow -->
  <path d="M314 221L458 256L314 291L350 256L314 221Z" fill="black"/>
  <!-- Head crest -->
  <path d="M230 137L352 96L319 160L230 157V137Z" fill="black"/>
  <!-- Tail feathers -->
  <path d="M170 332L102 456L229 370L170 332Z" fill="black"/>
  <path d="M229 368L286 454H191L229 368Z" fill="black"/>
  <!-- Eye cutout (white hole) -->
  <circle cx="269" cy="255" r="25" fill="white"/>
</svg>
