<svg width="1200" height="360" viewBox="0 0 1200 360" fill="none" xmlns="http://www.w3.org/2000/svg">
  <defs>
    <pattern id="scanlines" x="0" y="0" width="10" height="10" patternUnits="userSpaceOnUse">
      <rect width="10" height="10" fill="#EAE6DD"/>
      <rect y="4" width="10" height="1.5" fill="#0B0C0D" fill-opacity="0.92"/>
    </pattern>
    <clipPath id="crow">
      <path d="M92 336C108 239 175 142 286 130L360 92L340 138H294C324 154 338 186 338 229C338 314 283 385 201 413L255 466H173L191 411L125 474L146 398H92V336Z"/>
    </clipPath>
  </defs>

  <rect width="1200" height="360" rx="36" fill="#0B0C0D"/>
  <rect x="18" y="18" width="1164" height="324" rx="24" stroke="#2A2D2F" stroke-width="2"/>

  <g transform="translate(44 -18) scale(0.62)">
    <g clip-path="url(#crow)">
      <rect x="70" y="80" width="320" height="394" fill="url(#scanlines)"/>
    </g>
    <path d="M201 188C190 231 221 264 268 264C320 264 360 228 370 175C347 161 319 154 288 154C236 154 210 167 201 188Z" fill="#EAE6DD"/>
    <circle cx="283" cy="171" r="19" fill="#0B0C0D"/>
    <path d="M289 130L360 92L340 138H296L289 130Z" fill="#EAE6DD"/>
    <path d="M181 409L226 463H173L181 409Z" fill="#EAE6DD"/>
    <path d="M191 411L125 474L146 398L191 411Z" fill="#EAE6DD"/>
  </g>

  <path d="M350 78H1150" stroke="#2A2D2F" stroke-width="2"/>
  <text x="350" y="165" fill="#EAE6DD" font-family="'Space Grotesk', 'Avenir Next', 'Segoe UI', sans-serif" font-size="132" font-weight="700" letter-spacing="-6">caw</text>
  <text x="354" y="214" fill="#A7AAA4" font-family="'IBM Plex Mono', 'SFMono-Regular', Consolas, monospace" font-size="24" font-weight="500" letter-spacing="2">coding assistant watcher</text>
  <text x="354" y="278" fill="#EAE6DD" font-family="'IBM Plex Sans', 'Inter', 'Segoe UI', sans-serif" font-size="34" font-weight="500">Watch every coding agent from one quiet perch.</text>

  <g transform="translate(354 302)">
    <circle cx="10" cy="10" r="10" fill="#1D9E75"/>
    <text x="28" y="16" fill="#A7AAA4" font-family="'IBM Plex Mono', 'SFMono-Regular', Consolas, monospace" font-size="18">working</text>
    <path d="M120 2L130 18H110L120 2Z" fill="#EF9F27"/>
    <text x="144" y="16" fill="#A7AAA4" font-family="'IBM Plex Mono', 'SFMono-Regular', Consolas, monospace" font-size="18">waiting</text>
    <circle cx="252" cy="10" r="10" stroke="#888780" stroke-width="3"/>
    <circle cx="252" cy="10" r="3.5" fill="#888780"/>
    <text x="272" y="16" fill="#A7AAA4" font-family="'IBM Plex Mono', 'SFMono-Regular', Consolas, monospace" font-size="18">idle</text>
  </g>
</svg>
